<?xml version="1.0" encoding="iso-8859-1"?>
<!-- Generator: Adobe Illustrator 19.0.0, SVG Export Plug-In . SVG Version: 6.00 Build 0)  -->
<svg version="1.1" id="Layer_1" xmlns="http://www.w3.org/2000/svg" xmlns:xlink="http://www.w3.org/1999/xlink" x="0px" y="0px"
	 viewBox="0 0 512 512" style="enable-background:new 0 0 512 512;" xml:space="preserve">
<g>
	<g>
		<path d="M451.908,224.327L91.42,6.615C84.152,2.226,76.962,0,70.05,0C55.38,0,40.576,10.917,40.576,35.305V476.8
			c0,24.314,14.712,35.198,29.292,35.2c0.002,0,0.002,0,0.003,0c6.945,0,14.172-2.266,21.479-6.734l360.726-220.618
			c12.329-7.54,19.381-18.553,19.348-30.215C471.391,242.771,464.279,231.797,451.908,224.327z M345.959,184.753l-51.028,55.149
			L110.965,42.832L345.959,184.753z M64.671,488.759c-2.794-3.224-3.197-8.967-3.197-11.959V35.305
			c0-3.534,0.494-8.627,2.938-11.716L280.7,255.281L64.671,488.759z M112.507,467.83l182.492-197.232l50.879,54.503L112.507,467.83z
			 M441.173,266.82l-77.096,47.152l-54.848-58.754l54.993-59.434l76.882,46.432c5.976,3.609,9.41,8.083,9.422,12.275
			C450.538,258.683,447.129,263.176,441.173,266.82z"/>
	</g>
</g>
<g>
	<g>
		<path d="M93.657,177.152c-5.771,0-10.449,4.678-10.449,10.449v4.576c0,5.771,4.678,10.449,10.449,10.449
			s10.449-4.678,10.449-10.449v-4.576C104.106,181.83,99.428,177.152,93.657,177.152z"/>
	</g>
</g>
<g>
	<g>
		<path d="M93.657,214.79c-5.771,0-10.449,4.678-10.449,10.449v99.266c0,5.771,4.678,10.449,10.449,10.449
			s10.449-4.678,10.449-10.449v-99.266C104.106,219.468,99.428,214.79,93.657,214.79z"/>
	</g>
</g>
<g>
</g>
<g>
</g>
<g>
</g>
<g>
</g>
<g>
</g>
<g>
</g>
<g>
</g>
<g>
</g>
<g>
</g>
<g>
</g>
<g>
</g>
<g>
</g>
<g>
</g>
<g>
</g>
<g>
</g>
</svg>
