<?xml version="1.0" encoding="UTF-8"?>
<svg width="282px" height="31px" viewBox="0 0 282 31" version="1.1" xmlns="http://www.w3.org/2000/svg" xmlns:xlink="http://www.w3.org/1999/xlink">
    <!-- Generator: Sketch 51.2 (57519) - http://www.bohemiancoding.com/sketch -->
    <title>logo</title>
    <desc>Created with Sketch.</desc>
    <defs></defs>
    <g id="Page-1" stroke="none" stroke-width="1" fill="none" fill-rule="evenodd">
        <g id="logo">
            <g id="logo-copy-2">
                <path d="M13.4832155,24.0674882 C14.9584671,24.0674882 16.1470671,22.8803706 16.1470671,21.4069588 C16.1470671,19.9335471 14.8763058,18.7464294 13.4832155,18.7464294 L8.07335097,18.7464294 L8.07335097,24.0674882 L13.4832155,24.0674882 Z M11.9659703,11.9920765 C13.4430477,11.9920765 14.6298219,10.8067824 14.6298219,9.33154706 C14.6298219,7.85813529 13.4430477,6.67101765 11.9659703,6.67101765 L8.07335097,6.67101765 L8.07335097,11.9920765 L11.9659703,11.9920765 Z M-0.00036516129,30.6978412 L-0.00036516129,0.000547058823 L13.5653768,0.000547058823 C18.4822735,0.000547058823 22.6615445,4.21654706 22.6615445,9.12731176 C22.6615445,11.2152529 21.883751,13.1390765 20.695151,14.6526059 C22.7856994,16.3320765 24.1787897,18.9105471 24.1787897,21.6932529 C24.1787897,26.5639 20.0396865,30.6978412 15.1629574,30.6978412 L-0.00036516129,30.6978412 Z" id="Fill-1" fill="#7167FF"></path>
                <path d="M38.9161516,15.5953706 L43.9152097,15.5953706 C46.374571,15.5953706 48.3409645,13.6715471 48.3409645,11.2152529 C48.3409645,8.75895882 46.374571,6.79501765 43.9152097,6.79501765 L38.9161516,6.79501765 L38.9161516,15.5953706 Z M48.6696097,30.6978412 L43.9152097,22.5521353 L38.9161516,22.5521353 L38.9161516,30.6978412 L30.8424355,30.6978412 L30.8424355,0.000547058823 L43.7928806,0.000547058823 C50.0207065,0.000547058823 55.1037516,5.07542941 55.1037516,11.2973118 C55.1037516,14.5705471 53.6686677,17.5191941 51.4557903,19.5651941 L57.9720935,30.6978412 L48.6696097,30.6978412 Z" id="Fill-4" fill="#7167FF"></path>
                <polygon id="Fill-7" fill="#7167FF" points="63.7352516 30.6982059 71.8089677 30.6982059 71.8089677 0.000911764706 63.7352516 0.000911764706"></polygon>
                <polygon id="Fill-9" fill="#7167FF" points="102.403824 30.6982059 87.8977916 16.1683235 87.8977916 30.6982059 79.8240755 30.6982059 79.8240755 0.000911764706 83.1032239 0.000911764706 97.6494239 14.4888529 97.6494239 0.000911764706 105.72314 0.000911764706 105.72314 30.6982059"></polygon>
                <path d="M141.93509,14.2036529 L141.93509,15.3488294 C141.93509,23.8209471 135.049974,30.6974765 126.567277,30.6974765 C118.08458,30.6974765 111.239632,23.8209471 111.239632,15.3488294 C111.239632,6.87671176 118.08458,0.000182352941 126.567277,0.000182352941 C130.790367,0.000182352941 134.598999,1.71977059 137.387006,4.46235882 L131.69049,10.1098294 C130.379561,8.88259412 128.657825,8.06382941 126.567277,8.06382941 C122.716651,8.06382941 119.313348,11.1328294 119.313348,15.3488294 C119.313348,19.5648294 122.798812,22.6356529 126.567277,22.6356529 C128.984645,22.6356529 131.239515,21.4485353 132.510277,19.6049471 L126.567277,19.6049471 L126.567277,14.2036529 L141.93509,14.2036529 Z" id="Fill-10" fill="#7167FF"></path>
                <path d="M156.263288,15.5953706 L161.262346,15.5953706 C163.721708,15.5953706 165.688101,13.6715471 165.688101,11.2152529 C165.688101,8.75895882 163.721708,6.79501765 161.262346,6.79501765 L156.263288,6.79501765 L156.263288,15.5953706 Z M148.189572,0.000547058823 L161.140017,0.000547058823 C167.367843,0.000547058823 172.450888,5.07542941 172.450888,11.2973118 C172.450888,17.4772529 167.408011,22.5521353 161.30434,22.5521353 L156.263288,22.5521353 L156.263288,30.6978412 L148.189572,30.6978412 L148.189572,0.000547058823 Z" id="Fill-11" fill="#FF677D"></path>
                <path d="M186.697656,15.5953706 L191.696714,15.5953706 C194.156075,15.5953706 196.122469,13.6715471 196.122469,11.2152529 C196.122469,8.75895882 194.156075,6.79501765 191.696714,6.79501765 L186.697656,6.79501765 L186.697656,15.5953706 Z M196.451114,30.6978412 L191.696714,22.5521353 L186.697656,22.5521353 L186.697656,30.6978412 L178.62394,30.6978412 L178.62394,0.000547058823 L191.574385,0.000547058823 C197.804037,0.000547058823 202.885256,5.07542941 202.885256,11.2973118 C202.885256,14.5705471 201.450172,17.5191941 199.237295,19.5651941 L205.753598,30.6978412 L196.451114,30.6978412 Z" id="Fill-12" fill="#7167FF"></path>
                <polygon id="Fill-13" fill="#7167FF" points="211.516026 30.6982059 219.589742 30.6982059 219.589742 0.000911764706 211.516026 0.000911764706"></polygon>
                <path d="M247.396774,10.1514059 C246.127839,8.88222941 244.322116,8.14552353 242.233394,8.14552353 C238.054123,8.14552353 235.021458,11.1744059 235.021458,15.3502882 C235.021458,19.5243471 238.054123,22.5532294 242.233394,22.5532294 C244.322116,22.5532294 246.127839,21.8165235 247.396774,20.5072294 L253.135284,26.1547 C250.347277,28.9374059 246.496652,30.6989353 242.233394,30.6989353 C233.748871,30.6989353 226.865581,23.8224059 226.865581,15.3502882 C226.865581,6.87634706 233.748871,-0.000182352941 242.233394,-0.000182352941 C246.454658,-0.000182352941 250.265116,1.67928824 253.053123,4.46199412 L247.396774,10.1514059 Z" id="Fill-14" fill="#7167FF"></path>
                <polygon id="Fill-15" fill="#7167FF" points="261 6.84552941 281.923742 6.84552941 281.923742 0 261 0"></polygon>
                <polygon id="Fill-16" fill="#7167FF" points="261 30.8455294 281.923742 30.8455294 281.923742 24 261 24"></polygon>
                <polygon id="Fill-17" fill="#7167FF" points="261 18.8455294 281.923742 18.8455294 281.923742 12 261 12"></polygon>
            </g>
        </g>
    </g>
</svg>